<?xml version="1.0" encoding="UTF-8" standalone="no"?>
<!DOCTYPE svg PUBLIC "-//W3C//DTD SVG 1.1//EN" "http://www.w3.org/Graphics/SVG/1.1/DTD/svg11.dtd">
<svg width="100%" height="100%" viewBox="0 0 512 512" version="1.1" xmlns="http://www.w3.org/2000/svg" xmlns:xlink="http://www.w3.org/1999/xlink" xml:space="preserve" xmlns:serif="http://www.serif.com/" style="fill-rule:evenodd;clip-rule:evenodd;stroke-linejoin:round;stroke-miterlimit:2;">
    <rect x="0" y="0" width="512" height="512" style="fill:rgb(2,201,150);"/>
    <g>
        <g transform="matrix(1.25769,0,0,1.25769,-72.3819,-90.9473)">
            <circle cx="261.1" cy="275.862" r="176.213" style="fill:rgb(1,0,0);"/>
        </g>
        <g transform="matrix(0.101643,0,0,0.101643,-2593.5,-304.842)">
            <g>
                <path d="M26735.5,4926.09L27039.8,5185.9C26897.9,5229.43 26794.6,5361.56 26794.6,5517.62C26794.6,5709.09 26950.1,5864.53 27141.5,5864.53C27316.5,5864.53 27461.4,5734.67 27485.1,5566.13L27789.5,5826.05C27674.1,6067.87 27427.2,6235.14 27141.5,6235.14C26745.5,6235.14 26424,5913.63 26424,5517.62C26424,5272.25 26547.4,5055.49 26735.5,4926.09Z" style="fill:rgb(2,201,150);"/>
                <path d="M27488.4,5568.83L27488.4,6235.14L27859,6235.14L27859,5885.29L27488.4,5568.83ZM27859,5055.79L27559.6,4800.1L27859,4800.1L27859,5055.79Z" style="fill:rgb(2,201,150);"/>
            </g>
            <g transform="matrix(1.05359,-1.2336,1.98311,1.69373,6244.11,11738.1)">
                <path d="M11696,4458.63C11696,4404.42 11625.2,4360.41 11538.1,4360.41L11485.4,4360.41L11485.4,5067.88C11485.4,5140.16 11579.8,5198.84 11696,5198.84L11696,4458.63Z" style="fill:rgb(2,201,150);"/>
            </g>
            <g>
                <path d="M28114.4,5274.01C28214.2,4997.77 28478.9,4800.1 28789.5,4800.1C29185.5,4800.1 29507,5121.61 29507,5517.62C29507,5788.1 29357,6023.82 29135.7,6146.09L28805.5,5864.16C28989.6,5855.73 29136.4,5703.69 29136.4,5517.62C29136.4,5326.16 28980.9,5170.71 28789.5,5170.71C28598,5170.71 28442.5,5326.16 28442.5,5517.62C28442.5,5530.58 28443.3,5543.38 28444.7,5555.99L28114.4,5274.01Z" style="fill:white;"/>
                <path d="M29136.4,6146.59L29240.4,6235.43L29507,6235.43L29507,4800.4L29136.4,4800.4L29136.4,6146.59Z" style="fill:white;"/>
            </g>
        </g>
    </g>
</svg>
